<svg width="91" height="91" viewBox="0 0 91 91" fill="none" xmlns="http://www.w3.org/2000/svg">
<g clip-path="url(#clip0_1501_48596)">
<path d="M43.6077 48.8635C43.6077 48.8635 38.5347 39.0884 38.7221 31.9456C38.8588 26.8413 50.3678 21.7957 54.8862 14.4693C59.3968 7.13886 54.3239 0 54.3239 0C54.3239 0 55.4525 5.2643 52.4453 10.7084C49.4383 16.1602 38.3392 19.3586 34.024 28.755C29.7087 38.1513 43.6077 48.8635 43.6077 48.8635Z" fill="#DBDBDB"/>
<path d="M62.5954 19.167C62.5954 19.167 45.3065 25.7475 45.3065 33.2613C45.3065 40.7829 50.0007 43.2238 50.7584 45.6647C51.5083 48.1133 49.4424 52.2452 49.4424 52.2452C49.4424 52.2452 56.2065 47.547 55.0738 42.0953C53.9452 36.6435 48.6847 34.9485 51.6957 29.5046C53.7069 25.8531 62.5954 19.167 62.5954 19.167Z" fill="#DBDBDB"/>
<path d="M41.7332 58.7948C57.7098 58.2247 63.5366 53.1829 63.5366 53.1829C53.2032 55.9987 25.7605 55.8151 25.5691 53.7492C25.3855 51.6832 34.0242 49.9883 34.0242 49.9883C34.0242 49.9883 20.4962 49.9883 19.3675 53.3702C18.2387 56.7524 25.7681 59.3533 41.7332 58.7948Z" fill="#DBDBDB"/>
<path d="M64.8486 66.7148C64.8486 66.7148 80.4855 63.3798 78.939 54.8856C77.0644 44.5443 66.1607 50.371 66.1607 50.371C66.1607 50.371 73.8736 50.371 74.6196 55.0652C75.3734 59.7633 64.8486 66.7148 64.8486 66.7148Z" fill="#DBDBDB"/>
<path d="M57.1435 62.2078C57.1435 62.2078 53.203 63.2426 47.3646 63.8988C39.5383 64.7774 30.0757 64.0823 29.322 62.7661C28.5801 61.4501 30.638 60.7002 30.638 60.7002C21.2379 62.9575 26.3813 66.898 37.3982 67.6557C46.8412 68.3 60.8964 64.836 60.8964 64.836L57.1435 62.2078Z" fill="#DBDBDB"/>
<path d="M32.9032 70.417C32.9032 70.417 28.6386 70.5381 28.3886 72.7954C28.1425 75.0371 31.013 77.0522 41.5416 77.6772C52.0664 78.302 59.4631 74.7989 59.4631 74.7989L54.7025 71.909C54.7025 71.909 51.6915 72.5416 47.0558 73.1666C42.4163 73.7953 32.9028 72.6627 32.528 71.7919C32.1455 70.9129 32.9032 70.417 32.9032 70.417Z" fill="#DBDBDB"/>
<path d="M73.8661 80.5665C75.4946 78.809 73.3622 77.4305 73.3622 77.4305C73.3622 77.4305 74.1121 78.3092 73.1202 79.3091C72.1164 80.3088 62.9663 82.8122 48.3057 83.5659C33.649 84.3196 17.7348 82.1872 17.231 80.3088C16.7429 78.4303 25.3813 76.9307 25.3813 76.9307C24.3816 77.0556 12.3532 77.3056 11.9705 80.5665C11.5955 83.8195 17.231 86.4517 39.792 86.4517C62.3415 86.4479 72.2453 82.3121 73.8661 80.5665Z" fill="#DBDBDB"/>
<path d="M65.0987 87.9557C55.1987 89.9552 25.1355 88.6938 25.1355 88.6938C25.1355 88.6938 44.6739 93.3333 66.9771 89.4515C77.6386 87.5925 78.2596 82.4336 78.2596 82.4336C78.2596 82.4336 74.9987 85.9445 65.0987 87.9557Z" fill="#DBDBDB"/>
</g>
<defs>
<clipPath id="clip0_1501_48596">
<rect width="91" height="91" fill="white"/>
</clipPath>
</defs>
</svg>
