<svg width="84" height="84" viewBox="0 0 84 84" fill="none" xmlns="http://www.w3.org/2000/svg">
<path d="M53.7206 15.4274C53.7206 14.4325 54.5291 13.6266 55.524 13.6266C56.5189 13.6266 57.3274 14.4325 57.3274 15.43C57.3274 16.4275 56.5215 17.2334 55.524 17.2334C54.5291 17.2334 53.7232 16.4275 53.7206 15.4326V15.4274ZM42.0157 2.63574L18.879 25.7725C12.9544 31.6656 9.28723 39.8215 9.28723 48.8357C9.28723 66.7986 23.8481 81.3595 41.811 81.3595C50.8252 81.3595 58.9811 77.6924 64.8716 71.7704L64.8742 71.7677C70.9432 65.9166 74.7127 57.7135 74.7127 48.631C74.7127 39.685 71.0561 31.5947 65.1551 25.7699L65.1525 25.7672L59.4326 31.4845C63.8557 35.9076 66.591 42.0186 66.591 48.7675C66.591 62.2679 55.6474 73.2115 42.147 73.2115C28.6466 73.2115 17.703 62.2679 17.703 48.7675C17.703 42.0186 20.4382 35.9076 24.8614 31.4845L40.1047 16.2437L42.0131 14.0624L42.0157 2.63574Z" fill="#D1D1D1"/>
</svg>
